<?xml version="1.0" standalone="no"?>
<!DOCTYPE svg PUBLIC "-//W3C//DTD SVG 20010904//EN"
 "http://www.w3.org/TR/2001/REC-SVG-20010904/DTD/svg10.dtd">
<svg version="1.0" xmlns="http://www.w3.org/2000/svg"
 width="892.000000pt" height="804.000000pt" viewBox="0 0 892.000000 804.000000"
 preserveAspectRatio="xMidYMid meet">

<g transform="translate(0.000000,804.000000) scale(0.100000,-0.100000)"
fill="#000000" stroke="none">
<path d="M4260 7820 c-220 -30 -289 -51 -490 -148 -193 -94 -393 -258 -525
-432 -116 -152 -204 -324 -254 -495 -20 -66 -2 -53 -231 -177 -41 -22 -81 -45
-89 -51 -7 -6 -21 -16 -31 -22 -18 -10 -42 -26 -125 -82 -55 -37 -277 -257
-371 -368 -32 -38 -62 -72 -65 -75 -3 -3 -55 -70 -115 -150 -157 -208 -271
-393 -378 -614 -31 -63 -60 -116 -65 -118 -5 -1 -11 -12 -13 -23 -1 -11 -5
-22 -8 -25 -3 -3 -14 -30 -24 -60 -11 -30 -24 -58 -29 -61 -5 -4 -10 -18 -10
-32 -1 -14 -5 -23 -8 -21 -10 6 -91 -264 -83 -277 4 -7 3 -9 -2 -6 -13 7 -48
-128 -38 -145 4 -7 3 -9 -2 -5 -4 4 -14 -16 -21 -45 -28 -114 -32 -135 -43
-183 -6 -27 -13 -66 -16 -85 -3 -19 -14 -87 -24 -150 -10 -63 -22 -146 -25
-185 -4 -38 -9 -72 -10 -75 -2 -3 -7 -62 -11 -130 -10 -152 -10 -364 0 -567
l8 -152 -99 3 c-308 11 -562 -104 -729 -329 -61 -82 -121 -219 -140 -320 -4
-22 -9 -47 -12 -55 -8 -31 -9 -719 0 -805 31 -292 211 -547 499 -707 46 -26
169 -71 224 -82 113 -24 108 -23 538 -25 l359 -1 50 -50 c48 -48 162 -140 173
-140 3 0 22 -10 43 -23 56 -35 168 -74 257 -91 119 -23 4120 -23 4235 0 165
32 317 111 450 234 36 33 74 62 85 65 11 2 205 6 430 8 379 3 416 5 485 24 90
25 214 81 290 130 73 48 217 193 263 266 34 52 46 76 94 186 9 19 23 73 34
120 16 77 18 131 15 506 -2 405 -3 423 -25 495 -43 140 -107 255 -198 353 -41
44 -127 117 -138 117 -3 0 -18 9 -33 20 -93 67 -322 116 -487 105 -49 -4 -94
-9 -99 -12 -4 -3 -5 48 -1 113 18 318 11 639 -20 864 -19 137 -68 380 -101
505 -13 50 -26 101 -30 115 -23 92 -90 287 -139 405 -62 147 -181 390 -223
455 -10 14 -22 34 -29 45 -68 114 -135 213 -227 335 -60 80 -112 147 -115 150
-3 3 -33 37 -65 75 -87 102 -260 276 -346 348 -100 83 -188 150 -287 218 -63
43 -76 59 -48 59 9 0 34 9 57 21 l41 21 39 -46 c43 -50 129 -106 200 -131 144
-48 323 -2 433 111 42 43 100 141 116 197 29 99 19 213 -29 317 -28 61 -136
176 -192 205 -158 81 -362 50 -492 -75 l-52 -50 -141 61 c-77 33 -156 66 -175
73 -209 78 -389 167 -620 306 -273 164 -405 220 -610 255 -105 19 -325 26
-410 15z m348 -225 c63 -10 149 -35 245 -70 81 -30 151 -55 155 -55 5 0 47
-23 93 -51 126 -77 401 -234 440 -252 78 -36 188 -81 249 -103 127 -45 152
-55 217 -84 36 -17 71 -30 78 -30 13 0 184 -86 198 -99 7 -7 -81 -71 -98 -71
-4 0 -30 -12 -58 -26 -111 -55 -261 -55 -464 0 -120 33 -144 46 -226 122 -37
35 -72 64 -78 64 -6 0 -25 11 -43 25 -18 14 -37 25 -41 25 -5 0 -44 23 -87 51
-152 100 -475 188 -547 149 -13 -6 -19 -15 -15 -20 9 -7 293 -133 362 -160 18
-7 36 -18 40 -25 4 -7 25 -22 47 -33 37 -18 155 -107 263 -196 24 -20 62 -60
85 -89 22 -28 47 -56 54 -60 7 -4 13 -12 13 -18 0 -12 -29 -5 -140 32 -47 15
-103 31 -125 34 -22 3 -56 10 -75 15 -77 19 -190 39 -295 51 -158 18 -692 21
-835 4 -238 -26 -672 -116 -725 -149 -20 -13 -130 -56 -142 -56 -12 0 9 108
38 195 106 318 358 613 649 760 107 54 249 102 354 119 111 19 296 19 414 1z
m2055 -526 c90 -45 137 -114 144 -214 3 -33 0 -78 -6 -100 -33 -125 -183 -210
-308 -176 -41 11 -123 66 -129 86 -2 6 15 24 38 40 23 17 61 47 85 69 36 32
43 45 43 76 0 31 -7 44 -37 72 -21 18 -55 44 -75 56 -21 13 -38 25 -38 27 0 3
10 14 23 26 62 60 181 77 260 38z m-1878 -559 c215 -27 376 -54 430 -72 33
-11 89 -26 125 -34 125 -27 144 -34 310 -104 25 -10 72 -30 106 -43 33 -13 98
-45 143 -72 122 -72 210 -189 247 -330 18 -65 19 -393 2 -430 -16 -36 -53 -32
-113 11 -67 48 -115 72 -280 139 -77 31 -153 63 -170 70 -58 26 -361 99 -500
119 -60 9 -121 19 -135 21 -14 3 -137 12 -275 20 -189 11 -290 12 -415 5 -380
-22 -479 -33 -640 -71 -69 -17 -179 -41 -245 -54 -66 -14 -161 -38 -211 -54
-112 -37 -319 -137 -397 -193 -64 -45 -80 -45 -104 3 -16 33 -1 327 22 424 62
267 301 423 850 554 191 46 297 62 635 96 148 15 480 12 615 -5z m-2157 -308
c-65 -70 -118 -173 -150 -291 -18 -66 -22 -113 -26 -367 -4 -282 -3 -292 18
-341 12 -28 35 -63 51 -77 28 -26 29 -28 29 -129 0 -344 110 -655 319 -904 55
-65 205 -196 259 -225 18 -9 32 -21 32 -25 0 -5 -26 -24 -57 -42 -267 -157
-495 -426 -620 -731 -19 -47 -40 -98 -48 -115 -7 -16 -16 -44 -20 -61 l-6 -32
-262 5 c-162 3 -313 1 -397 -7 -74 -6 -187 -14 -252 -17 l-116 -5 -9 78 c-16
150 -10 724 10 884 22 181 52 347 78 425 11 33 35 119 54 190 95 368 230 686
427 1003 155 250 446 605 606 738 95 81 130 100 80 46z m3791 -217 c109 -105
278 -301 401 -466 374 -501 611 -1123 689 -1809 24 -210 21 -709 -5 -840 l-7
-33 -141 7 c-78 3 -157 9 -176 13 -19 4 -187 7 -373 8 l-338 0 -10 40 c-34
132 -129 333 -219 465 -131 190 -282 333 -467 444 -58 34 -78 56 -53 56 18 0
189 151 241 213 213 253 319 559 319 918 0 113 1 116 25 129 14 7 34 33 46 57
20 42 21 59 21 316 0 308 -9 377 -68 512 -20 44 -38 87 -41 94 -11 25 57 -29
156 -124z m-1604 -405 c157 -15 325 -44 515 -91 282 -70 453 -140 652 -267
l93 -60 -1 -183 c-1 -166 -3 -195 -28 -293 -55 -215 -138 -368 -276 -507 -96
-97 -178 -157 -296 -218 l-81 -42 -32 30 c-39 36 -81 46 -164 37 -194 -20
-464 -134 -622 -263 l-58 -47 -81 0 c-71 -1 -83 2 -106 23 -164 153 -543 304
-726 289 -42 -4 -63 -12 -95 -38 l-41 -33 -107 54 c-301 152 -487 382 -572
704 -28 107 -32 140 -36 306 l-6 185 99 66 c173 115 321 178 565 242 250 66
456 101 689 116 148 10 560 4 715 -10z m-1097 -1785 c45 -9 107 -27 139 -41
128 -57 251 -118 315 -156 l67 -40 -22 -41 c-12 -23 -26 -45 -31 -48 -4 -4
-45 -10 -90 -13 -104 -9 -180 -30 -234 -67 -24 -16 -47 -29 -52 -29 -5 0 -19
14 -32 30 -13 17 -33 43 -46 59 -12 16 -43 67 -68 112 -39 71 -47 93 -51 157
-5 57 -3 76 8 83 17 11 3 12 97 -6z m1533 5 c15 -9 19 -22 19 -67 0 -47 -8
-72 -52 -161 -31 -61 -73 -128 -102 -159 -44 -49 -76 -67 -76 -43 0 13 -75 50
-135 66 -27 8 -88 14 -135 14 l-85 1 -33 52 c-29 46 -31 53 -16 62 9 6 42 26
74 46 31 20 102 56 156 79 54 23 105 47 111 52 7 6 50 23 95 39 87 30 146 36
179 19z m355 -150 c263 -135 442 -318 580 -592 34 -67 74 -184 74 -215 0 -10
-29 -13 -113 -13 l-113 0 -17 87 c-29 152 -128 274 -266 328 -64 25 -78 27
-163 23 -122 -7 -187 -33 -266 -103 -33 -31 -64 -64 -67 -75 -9 -29 -22 -24
-28 9 -5 23 -46 118 -75 173 -2 4 19 23 47 43 28 21 71 62 96 93 51 64 145
244 145 277 0 47 12 45 166 -35z m-2171 20 c2 -8 28 -67 58 -130 45 -94 69
-130 131 -197 l77 -82 -31 -49 c-41 -67 -60 -125 -60 -183 0 -27 -4 -49 -10
-49 -5 0 -21 17 -34 38 -40 62 -70 87 -176 139 -44 22 -72 28 -145 31 -105 4
-167 -14 -256 -76 -60 -42 -144 -140 -154 -180 -3 -15 -11 -44 -16 -64 l-10
-38 -99 0 c-112 0 -114 2 -88 79 19 54 157 300 197 351 126 159 259 273 415
356 138 73 196 88 201 54z m1053 -164 c20 -19 34 -37 31 -41 -4 -3 -44 -5 -90
-3 l-83 3 37 38 c21 20 44 37 52 37 9 0 32 -15 53 -34z m97 -191 c0 -19 -8
-20 -147 -23 -139 -2 -148 -1 -148 16 0 10 3 22 7 26 4 3 70 5 147 4 133 -3
141 -4 141 -23z m-405 -25 c0 -17 6 -46 14 -64 18 -43 33 -46 271 -46 221 0
224 1 233 90 5 50 5 50 41 50 45 0 113 -21 177 -53 115 -58 194 -177 194 -291
0 -89 -20 -127 -95 -179 -58 -41 -62 -42 -140 -42 -60 1 -92 6 -129 23 -46 21
-61 22 -332 22 -265 0 -286 -1 -322 -20 -57 -30 -160 -37 -217 -16 -81 31
-133 137 -120 244 9 76 24 107 80 169 61 69 164 121 261 132 38 5 72 9 77 10
4 0 7 -13 7 -29z m1514 -214 c50 -21 117 -85 138 -133 10 -22 21 -68 24 -100
9 -80 -21 -151 -83 -198 -61 -47 -103 -58 -188 -53 -121 8 -200 68 -231 175
-33 112 22 242 125 295 61 32 157 38 215 14z m-2343 -94 c67 -34 111 -96 128
-179 23 -108 -20 -203 -116 -260 -53 -31 -167 -43 -226 -24 -62 21 -122 75
-147 132 -41 96 -12 219 69 292 58 52 94 66 172 67 54 0 77 -5 120 -28z
m-1251 -422 c54 -28 83 -81 170 -318 40 -108 110 -297 156 -420 96 -256 103
-295 56 -342 -40 -39 -95 -49 -141 -24 -29 15 -42 34 -68 93 -17 41 -37 78
-45 82 -16 11 -389 12 -404 1 -6 -4 -23 -40 -38 -80 -30 -78 -51 -99 -109
-109 -48 -7 -98 24 -122 78 -16 35 -17 47 -7 84 23 86 321 868 343 900 49 71
134 93 209 55z m719 -20 c20 -23 105 -111 188 -196 l153 -155 29 33 c15 18 40
47 55 64 15 19 39 34 58 38 53 10 153 61 196 101 23 20 57 61 78 92 32 49 39
54 63 48 44 -11 72 -35 92 -78 17 -39 19 -71 19 -472 0 -236 -5 -448 -10 -470
-27 -118 -178 -138 -230 -31 -19 39 -20 61 -20 305 0 206 -3 262 -12 259 -7
-3 -54 -58 -104 -123 -104 -137 -149 -170 -221 -162 -65 7 -107 40 -209 169
-53 66 -97 118 -99 116 -2 -1 -6 -122 -9 -268 -4 -146 -11 -278 -17 -295 -20
-63 -113 -91 -172 -52 -62 40 -62 39 -65 519 -2 282 1 452 8 477 20 76 76 120
154 121 33 0 44 -6 75 -40z m1530 26 c78 -41 86 -166 12 -205 -10 -6 -76 -11
-147 -12 -71 0 -137 -5 -146 -10 -15 -8 -18 -24 -18 -99 0 -78 2 -91 19 -100
11 -5 71 -10 135 -10 133 0 159 -7 186 -52 24 -40 25 -69 3 -115 -24 -51 -61
-63 -193 -63 -61 0 -120 -5 -131 -10 -17 -9 -19 -22 -19 -105 0 -83 2 -96 19
-105 12 -6 74 -9 150 -8 l130 3 30 -29 c38 -37 48 -81 28 -129 -27 -64 -53
-70 -287 -71 -241 -1 -267 7 -307 83 -23 44 -23 44 -23 490 0 424 1 448 20
478 22 37 58 63 103 73 17 5 117 8 220 9 146 1 194 -2 216 -13z m971 -41 c69
-65 151 -104 239 -112 62 -6 64 -7 91 -49 91 -144 45 -363 -98 -469 -73 -54
-155 -76 -312 -82 -82 -4 -138 -10 -142 -17 -4 -6 -7 -64 -7 -129 0 -149 -9
-178 -65 -208 -39 -20 -48 -22 -84 -11 -51 16 -89 60 -97 115 -3 23 -5 240 -3
482 3 496 0 474 81 514 37 18 60 21 191 21 l149 0 57 -55z m1558 41 c66 -34
75 -52 203 -397 55 -151 125 -338 155 -417 73 -195 72 -256 -9 -296 -76 -37
-136 -3 -177 102 -13 31 -30 63 -39 70 -12 9 -63 12 -198 12 -100 -1 -191 -4
-201 -7 -12 -3 -29 -30 -48 -76 -48 -117 -124 -147 -209 -82 l-35 26 -22 -21
c-37 -35 -92 -43 -258 -38 -167 5 -192 12 -241 65 -47 51 -49 69 -49 512 l1
416 49 23 c26 12 66 41 88 63 34 36 42 40 61 30 49 -27 51 -42 51 -460 l0
-390 22 -15 c17 -12 49 -16 134 -16 99 0 114 -2 139 -21 22 -18 29 -20 36 -8
13 20 92 222 214 549 59 157 118 300 132 318 50 67 136 92 201 58z m-5645 -10
c109 -21 193 -69 223 -129 30 -58 -5 -135 -72 -157 -33 -11 -42 -9 -116 25
-74 35 -84 37 -151 33 -117 -8 -203 -67 -256 -178 -23 -49 -26 -67 -26 -160 0
-91 3 -112 24 -155 55 -111 160 -175 286 -175 94 0 115 11 115 59 l0 39 -65 4
c-54 3 -70 9 -91 29 -46 47 -42 146 7 177 13 9 71 13 185 13 234 1 234 1 234
-221 0 -168 -11 -206 -75 -250 -165 -114 -476 -112 -633 4 -145 107 -225 252
-239 437 -23 298 177 560 465 609 72 12 104 11 185 -4z m6185 0 c36 -19 53
-43 161 -231 51 -88 98 -166 106 -174 14 -15 18 -9 151 227 93 166 108 183
166 189 86 10 138 -32 138 -110 0 -34 -23 -77 -223 -414 l-96 -163 -2 -122
c-2 -191 -13 -259 -43 -285 -56 -48 -143 -37 -183 24 -15 23 -19 56 -23 208
l-5 180 -51 80 c-99 155 -265 435 -275 465 -33 93 84 175 179 126z m987 -258
c71 -137 75 -166 75 -533 0 -420 -12 -497 -102 -650 -50 -86 -73 -112 -167
-187 -85 -68 -120 -87 -228 -125 l-78 -27 -430 -6 c-490 -6 -460 -1 -566 -97
-150 -136 -255 -193 -394 -213 -59 -8 -624 -10 -2110 -7 -2037 3 -2107 5
-2150 36 -5 4 -32 16 -59 26 -52 19 -120 70 -227 170 -49 46 -78 65 -112 73
-30 8 -167 12 -406 12 -372 0 -475 7 -571 41 -116 41 -255 145 -336 252 -109
146 -136 244 -132 489 2 106 6 165 11 153 5 -11 13 -32 19 -47 6 -15 19 -38
30 -50 11 -13 30 -39 43 -58 12 -19 62 -77 110 -128 74 -78 100 -99 169 -132
44 -22 106 -44 136 -50 30 -6 64 -16 75 -21 13 -6 1253 -8 3405 -7 l3385 3 40
21 c22 12 58 30 80 40 50 23 189 155 221 210 13 22 35 72 48 110 21 62 24 92
29 294 6 238 7 244 70 380 32 69 47 113 47 134 1 21 1 21 16 1 8 -11 35 -59
59 -107z"/>
<path d="M4135 6269 c-88 -4 -198 -15 -245 -23 -47 -9 -102 -16 -122 -16 -20
0 -49 -5 -65 -11 -15 -6 -73 -19 -128 -30 -181 -34 -199 -38 -275 -59 -302
-85 -478 -164 -521 -234 -24 -40 -24 -42 7 -72 20 -21 31 -24 52 -19 15 4 45
9 67 11 45 4 106 20 215 57 74 25 163 50 290 83 36 9 70 20 75 24 6 4 24 10
40 13 17 2 66 12 110 21 272 54 775 75 1145 46 165 -12 448 -62 609 -106 31
-9 72 -19 92 -23 58 -12 280 -91 348 -124 13 -7 55 -12 92 -12 60 0 72 3 95
26 25 25 25 27 11 61 -11 27 -31 45 -77 72 -33 20 -68 36 -76 36 -8 0 -22 4
-32 10 -35 19 -89 41 -172 69 -47 15 -112 38 -145 51 -59 22 -191 54 -290 70
-27 4 -62 13 -76 18 -14 6 -52 13 -85 17 -32 4 -95 13 -139 20 -185 32 -461
41 -800 24z"/>
<path d="M2039 3461 c-32 -26 -33 -92 -2 -123 50 -49 133 -8 133 67 0 63 -80
97 -131 56z"/>
<path d="M1897 3332 c-55 -60 26 -149 83 -92 11 11 20 31 20 45 0 54 -69 85
-103 47z"/>
<path d="M2202 3334 c-34 -23 -27 -83 11 -104 24 -13 30 -13 54 0 15 8 30 28
34 44 6 22 3 33 -16 52 -28 28 -52 30 -83 8z"/>
<path d="M6730 4777 c-21 -11 -53 -46 -132 -149 -22 -30 -36 -37 -90 -47 -184
-36 -197 -57 -131 -227 l36 -96 -21 -92 c-27 -110 -27 -137 -4 -166 16 -20 26
-22 108 -21 l89 1 54 -61 c62 -70 105 -95 147 -85 17 4 54 34 87 69 l58 62 96
10 c87 9 98 13 116 37 l20 27 -27 113 -27 114 34 85 c44 108 49 132 37 163
-12 33 -31 42 -135 62 l-88 18 -41 54 c-93 125 -135 154 -186 129z m90 -222
c46 -58 58 -67 108 -80 76 -21 102 -33 102 -44 0 -6 -9 -34 -21 -63 -21 -52
-22 -90 -7 -228 3 -21 -2 -25 -32 -30 -51 -9 -114 -45 -159 -90 -22 -22 -44
-40 -49 -40 -5 0 -28 20 -51 45 -53 56 -84 73 -155 81 -31 4 -56 10 -56 14 0
4 7 25 16 46 19 44 25 190 9 202 -6 4 -16 20 -23 36 -13 30 -7 45 19 50 107
18 155 48 205 128 13 21 28 38 33 38 5 0 33 -29 61 -65z"/>
<path d="M6761 3462 c-40 -32 -28 -113 19 -137 39 -20 43 -19 79 11 82 69 -15
194 -98 126z"/>
<path d="M6627 3332 c-9 -10 -17 -33 -17 -50 0 -67 92 -82 114 -19 20 56 -58
112 -97 69z"/>
<path d="M6921 3324 c-24 -31 -25 -35 -9 -69 13 -30 48 -41 77 -26 48 26 52
88 6 109 -38 18 -51 15 -74 -14z"/>
<path d="M3750 5210 c-87 -17 -167 -77 -203 -152 -61 -128 -32 -288 68 -376
68 -60 163 -78 259 -50 62 18 150 110 170 178 46 154 -11 311 -134 372 -62 30
-108 38 -160 28z m207 -137 c20 -26 15 -74 -9 -100 -29 -31 -71 -30 -97 3 -27
35 -27 72 2 102 18 19 29 23 57 18 19 -3 41 -13 47 -23z"/>
<path d="M4935 5189 c-59 -31 -102 -77 -133 -139 -23 -47 -27 -68 -27 -140 0
-73 4 -92 27 -136 54 -102 130 -153 229 -154 80 0 139 23 193 77 108 109 116
304 16 425 -68 83 -214 115 -305 67z m266 -119 c24 -23 28 -35 23 -57 -20 -88
-138 -79 -138 10 0 74 63 100 115 47z"/>
<path d="M4150 4600 c-48 -48 -3 -163 85 -219 129 -82 316 -58 410 52 65 75
69 152 11 178 -34 16 -51 7 -87 -45 -43 -61 -88 -79 -179 -74 -78 4 -73 1
-157 102 -26 31 -56 33 -83 6z"/>
<path d="M4874 3170 c-28 -11 -64 -58 -64 -82 0 -11 -5 -16 -10 -13 -19 12
-79 -16 -101 -46 -11 -17 -23 -47 -26 -67 -10 -74 66 -137 141 -118 35 9 76
52 76 80 0 19 5 21 40 18 33 -3 44 1 69 26 39 38 48 75 30 126 -23 67 -93 101
-155 76z m87 -69 c35 -35 36 -57 7 -88 -39 -42 -98 -19 -114 43 -6 22 -2 32
20 51 35 30 51 29 87 -6z m-136 -107 c30 -33 32 -67 5 -94 -26 -26 -51 -25
-84 1 -33 26 -34 62 -1 94 31 32 50 31 80 -1z"/>
<path d="M3940 3126 c0 -44 0 -45 -37 -48 -38 -3 -38 -3 -38 -48 0 -45 0 -45
38 -48 37 -3 37 -4 37 -47 0 -39 3 -45 24 -51 13 -3 35 -4 47 -2 20 2 24 10
27 46 3 37 6 42 28 42 43 0 64 17 64 53 0 42 -15 57 -57 57 -32 0 -33 1 -33
45 l0 45 -50 0 -50 0 0 -44z"/>
<path d="M4282 3094 c-28 -19 -29 -60 -2 -74 35 -19 110 -8 127 17 14 20 13
24 -11 48 -29 29 -79 34 -114 9z"/>
<path d="M4495 3099 c-65 -39 -35 -89 55 -89 58 0 93 48 57 78 -21 17 -90 24
-112 11z"/>
<path d="M2010 2127 c0 -4 -74 -220 -85 -249 -7 -16 2 -18 99 -18 78 0 106 3
106 13 0 6 -19 66 -43 132 -30 84 -47 121 -60 123 -9 2 -17 2 -17 -1z"/>
<path d="M5096 2325 c-9 -26 -7 -248 4 -265 14 -22 222 -16 270 9 45 23 74 72
72 123 -2 50 -24 87 -70 118 -32 22 -48 25 -152 29 -103 3 -118 1 -124 -14z"/>
<path d="M6790 2128 c0 -2 -20 -61 -45 -131 -25 -71 -45 -131 -45 -133 0 -2
50 -4 111 -4 85 0 110 3 106 13 -2 6 -24 67 -47 135 -34 97 -46 122 -61 122
-11 0 -19 -1 -19 -2z"/>
<path d="M3062 1090 c-24 -16 -46 -30 -51 -32 -4 -2 -22 -25 -40 -52 -105
-153 10 -385 191 -386 52 0 139 29 169 56 22 20 27 93 7 95 -29 3 -55 -4 -100
-27 -26 -13 -57 -24 -68 -24 -29 0 -70 23 -101 57 -80 86 -63 175 45 228 64
31 90 29 156 -15 39 -26 47 -28 65 -16 74 49 -37 146 -167 146 -53 0 -70 -5
-106 -30z"/>
<path d="M3547 1092 l-27 -28 0 -195 0 -195 28 -27 c27 -26 31 -27 154 -27
125 0 127 0 147 26 25 32 25 34 7 60 -13 16 -29 19 -130 22 l-116 4 0 54 0 54
79 0 c64 0 83 4 105 21 62 49 15 89 -104 89 l-80 0 0 35 0 35 113 0 c98 0 116
3 130 18 23 25 21 35 -8 60 -23 20 -36 22 -148 22 -122 0 -124 0 -150 -28z"/>
<path d="M4032 1108 c-17 -17 -17 -439 0 -456 19 -19 56 -14 69 9 7 14 10 64
8 138 -3 86 -1 114 7 106 6 -6 36 -53 67 -105 92 -157 122 -184 161 -141 14
16 16 43 14 232 l-3 214 -28 3 c-51 6 -57 -8 -58 -147 l-1 -126 -29 60 c-16
33 -40 76 -54 95 -14 19 -39 56 -56 83 -24 37 -37 47 -58 47 -15 0 -32 -5 -39
-12z"/>
<path d="M4552 1097 c-46 -49 -22 -77 65 -77 l63 0 0 -172 c1 -128 4 -178 14
-190 17 -23 39 -23 59 0 14 16 17 45 17 190 l0 172 61 0 c33 0 69 5 80 10 25
14 24 48 -3 71 -19 17 -39 19 -178 19 -151 0 -157 -1 -178 -23z"/>
<path d="M5115 1104 c-16 -8 -33 -21 -37 -27 -4 -7 -8 -102 -8 -213 0 -257 -9
-244 176 -244 141 0 174 10 174 54 0 46 -27 56 -148 56 l-112 0 0 55 0 55 75
0 c117 0 159 31 119 88 -14 20 -23 22 -105 22 l-89 0 0 35 0 35 113 0 c98 0
116 3 130 18 23 25 21 48 -5 66 -32 23 -240 22 -283 0z"/>
<path d="M5612 1091 l-34 -30 4 -195 c3 -174 5 -196 22 -215 21 -24 46 -27 64
-9 7 7 12 40 12 80 l0 68 70 0 c76 0 66 7 133 -94 44 -66 60 -75 86 -52 29 27
26 66 -9 114 -16 23 -30 45 -30 48 0 4 12 22 26 41 19 25 28 51 31 93 6 67
-12 108 -69 150 -30 22 -45 25 -153 28 l-120 4 -33 -31z m270 -96 c31 -23 34
-41 12 -73 -14 -20 -24 -22 -104 -22 -48 0 -95 3 -104 6 -20 8 -23 99 -3 108
6 3 48 4 92 3 62 -2 86 -7 107 -22z"/>
</g>
</svg>
